Coordinates
version=1
nRows=54
nColumns=12
inDegrees=yes

Units are S.I. units (second, meters, Newtons, ...)
Angles are in degrees

endheader
time	SC_y	SC_z	SC_x	AC_y	AC_z	AC_x	GH_y	GH_z	GH_yy	EL_x	PS_y
       0.0              -18.22          25.18          54.66           64.1         -4.269         -17.13           50.7          85.59         -35.47          10.07           27.4
   0.02528              -18.22          25.17          54.66           64.1         -4.268         -17.13          50.69          85.58         -35.48          10.08           27.4
   0.05057              -18.22          25.17          54.65           64.1         -4.267         -17.14          50.68          85.57         -35.49          10.08           27.4
   0.07585              -18.22          25.17          54.64          64.09         -4.266         -17.14          50.67          85.55         -35.49          10.09           27.4
    0.1011              -18.22          25.16          54.63          64.09         -4.265         -17.14          50.66          85.54          -35.5           10.1          27.41
    0.1264              -18.23          25.16          54.62          64.09         -4.264         -17.14          50.65          85.53         -35.51          10.11          27.41
    0.1517              -18.23          25.15          54.61          64.08         -4.263         -17.14          50.64          85.51         -35.51          10.12          27.41
     0.177              -18.23          25.15           54.6          64.08         -4.261         -17.14          50.63           85.5         -35.52          10.14          27.42
    0.2023              -18.23          25.14          54.59          64.08          -4.26         -17.14          50.62          85.48         -35.53          10.15          27.42
    0.2276              -18.24          25.14          54.58          64.07         -4.258         -17.14           50.6          85.46         -35.54          10.16          27.42
    0.2528              -18.24          25.13          54.57          64.07         -4.257         -17.14          50.59          85.44         -35.55          10.17          27.43
    0.2781              -18.24          25.12          54.55          64.06         -4.255         -17.14          50.57          85.42         -35.56          10.19          27.43
    0.3034              -18.25          25.12          54.54          64.05         -4.253         -17.14          50.55           85.4         -35.58          10.21          27.44
    0.3287              -18.25          25.11          54.52          64.05         -4.251         -17.14          50.54          85.37         -35.59          10.22          27.44
     0.354              -18.25           25.1           54.5          64.04         -4.248         -17.14          50.52          85.34          -35.6          10.24          27.45
    0.3793              -18.26          25.09          54.48          64.03         -4.246         -17.14          50.49          85.31         -35.62          10.26          27.46
    0.4045              -18.26          25.08          54.46          64.03         -4.243         -17.15          50.47          85.28         -35.63          10.29          27.46
    0.4298              -18.27          25.07          54.44          64.02          -4.24         -17.15          50.45          85.25         -35.65          10.31          27.47
    0.4551              -18.27          25.06          54.41          64.01         -4.237         -17.15          50.42          85.21         -35.67          10.34          27.48
    0.4804              -18.28          25.05          54.39           64.0         -4.234         -17.15          50.39          85.17         -35.69          10.37          27.49
    0.5057              -18.29          25.03          54.36          63.98          -4.23         -17.15          50.35          85.12         -35.72           10.4           27.5
     0.531               -18.3          25.02          54.32          63.97         -4.225         -17.15          50.32          85.07         -35.74          10.43          27.51
    0.5562               -18.3           25.0          54.29          63.96         -4.221         -17.15          50.28          85.02         -35.77          10.47          27.52
    0.5815              -18.31          24.98          54.25          63.94         -4.216         -17.16          50.23          84.96         -35.81          10.52          27.53
    0.6068              -18.32          24.96           54.2          63.93          -4.21         -17.16          50.18          84.89         -35.84          10.56          27.55
    0.6321              -18.33          24.94          54.15          63.91         -4.203         -17.16          50.13          84.82         -35.88          10.62          27.57
    0.6574              -18.35          24.91           54.1          63.88         -4.196         -17.17          50.06          84.73         -35.93          10.68          27.59
    0.6827              -18.36          24.88          54.03          63.86         -4.188         -17.17          49.99          84.64         -35.98          10.75          27.61
    0.7079              -18.38          24.85          53.96          63.83         -4.179         -17.17          49.91          84.53         -36.03          10.82          27.63
    0.7332               -18.4          24.81          53.88           63.8         -4.168         -17.18          49.82          84.41          -36.1          10.91          27.66
    0.7585              -18.42          24.77          53.79          63.77         -4.156         -17.18          49.72          84.27         -36.17          11.01          27.69
    0.7838              -18.44          24.72          53.68          63.72         -4.143         -17.19           49.6          84.11         -36.25          11.12          27.72
    0.8091              -18.47          24.67          53.56          63.68         -4.127         -17.19          49.46          83.92         -36.35          11.25          27.76
    0.8344               -18.5           24.6          53.42          63.62         -4.109          -17.2           49.3          83.71         -36.47          11.41          27.81
    0.8596              -18.54          24.52          53.25          63.56         -4.087         -17.21          49.12          83.46          -36.6          11.59          27.87
    0.8849              -18.59          24.43          53.05          63.48         -4.062         -17.22           48.9          83.16         -36.75           11.8          27.93
    0.9102              -18.64          24.32          52.82          63.39         -4.032         -17.23          48.64          82.81         -36.94          12.05          28.01
    0.9355               -18.7          24.19          52.54          63.28         -3.996         -17.25          48.33          82.39         -37.16          12.35           28.1
    0.9608              -18.78          24.04           52.2          63.15         -3.952         -17.27          47.95          81.88         -37.43          12.71          28.22
    0.9861              -18.88          23.85          51.79           63.0         -3.899         -17.29          47.49          81.25         -37.76          13.15          28.36
     1.011              -18.99          23.61          51.28           62.8         -3.833         -17.32          46.92          80.48         -38.17           13.7          28.53
     1.037              -19.14          23.32          50.64          62.55         -3.751         -17.35          46.21          79.52         -38.67          14.38          28.74
     1.062              -19.32          22.94          49.84          62.24         -3.648         -17.39          45.31          78.31         -39.31          15.24          29.01
     1.087              -19.56          22.47          48.82          61.85         -3.516         -17.45          44.18          76.78         -40.12          16.34          29.35
     1.112              -19.86          21.87          47.52          61.35         -3.348         -17.52          42.72          74.81         -41.16          17.74          29.78
     1.138              -20.24          21.09          45.85           60.7         -3.133         -17.61          40.86          72.29         -42.49          19.53          30.34
     1.163              -20.73          20.11          43.71          59.88         -2.857         -17.72          38.47          69.06         -44.19          21.83          31.05
     1.188              -21.35          18.86          41.02          58.84         -2.511         -17.87          35.47          65.01         -46.32          24.71          31.95
     1.214               -22.1          17.34          37.75          57.58         -2.089         -18.05          31.82          60.07         -48.93          28.23          33.04
     1.239              -22.97          15.59          33.95          56.12         -1.599         -18.25          27.58          54.34         -51.94           32.3          34.31
     1.264              -23.91          13.68          29.84          54.53         -1.069         -18.47          22.99          48.14         -55.21          36.71          35.68
     1.289              -24.85          11.78          25.73          52.95        -0.5396         -18.69           18.4          41.94         -58.48          41.12          37.06
     1.315              -25.73          10.02          21.93          51.48       -0.05028          -18.9          14.17          36.22          -61.5           45.2          38.32
      1.34              -26.48          8.508          18.66          50.22         0.3719         -19.08          10.51          31.28          -64.1          48.71          39.42
